<svg width="600" height="600" viewBox="0 0 600 600" fill="none" xmlns="http://www.w3.org/2000/svg">
<g clip-path="url(#clip0_2_2)">
<circle cx="300" cy="300" r="300" fill="#7700AA"/>
<path fill-rule="evenodd" clip-rule="evenodd" d="M188.876 158.6C197.638 167.4 197.637 181.667 188.875 190.466C174.291 205.113 162.721 222.501 154.828 241.638C146.935 260.775 142.872 281.286 142.872 302C142.872 322.714 146.935 343.225 154.828 362.362C162.721 381.499 174.291 398.887 188.875 413.534C197.637 422.333 197.638 436.6 188.876 445.4C180.114 454.2 165.909 454.2 157.146 445.401C138.395 426.569 123.52 404.213 113.372 379.608C103.223 355.004 98 328.632 98 302C98 275.368 103.223 248.996 113.372 224.392C123.52 199.787 138.395 177.431 157.146 158.599C165.909 149.8 180.114 149.8 188.876 158.6ZM411.124 158.6C419.886 149.8 434.091 149.8 442.853 158.599C461.605 177.431 476.48 199.787 486.628 224.392C496.777 248.996 502 275.368 502 302C502 328.632 496.777 355.004 486.628 379.608C476.48 404.213 461.605 426.569 442.853 445.401C434.091 454.2 419.886 454.2 411.124 445.4C402.362 436.6 402.363 422.333 411.125 413.534C425.709 398.887 437.279 381.499 445.172 362.362C453.065 343.225 457.128 322.714 457.128 302C457.128 281.286 453.065 260.775 445.172 241.638C437.279 222.501 425.709 205.113 411.125 190.466C402.363 181.667 402.362 167.4 411.124 158.6ZM252.39 222.342C261.154 231.14 261.156 245.407 252.395 254.208C239.777 266.885 232.688 284.075 232.688 302C232.688 319.925 239.777 337.115 252.395 349.792C261.156 358.593 261.154 372.86 252.39 381.658C243.627 390.456 229.421 390.454 220.661 381.653C199.63 360.526 187.816 331.874 187.816 302C187.816 272.126 199.63 243.475 220.661 222.347C229.421 213.546 243.627 213.544 252.39 222.342ZM347.655 222.342C356.418 213.544 370.624 213.546 379.384 222.347C400.415 243.475 412.229 272.126 412.229 302C412.229 331.874 400.415 360.526 379.384 381.653C370.624 390.454 356.418 390.456 347.655 381.658C338.891 372.86 338.889 358.593 347.65 349.792C360.268 337.115 367.357 319.925 367.357 302C367.357 284.075 360.268 266.885 347.65 254.208C338.889 245.407 338.891 231.14 347.655 222.342ZM300.067 279.467C312.458 279.467 322.504 289.556 322.504 302V302.225C322.504 314.67 312.458 324.758 300.067 324.758C287.676 324.758 277.631 314.67 277.631 302.225V302C277.631 289.556 287.676 279.467 300.067 279.467Z" fill="#FFD0F7"/>
</g>
<defs>
<clipPath id="clip0_2_2">
<rect width="600" height="600" fill="white"/>
</clipPath>
</defs>
</svg>
